<svg width="24" height="24" viewBox="0 0 24 24" fill="none" xmlns="http://www.w3.org/2000/svg">
<path d="M20.3051 5.38983C21.2412 5.38983 22 4.63099 22 3.69492C22 2.75884 21.2412 2 20.3051 2C19.369 2 18.6102 2.75884 18.6102 3.69492C18.6102 4.63099 19.369 5.38983 20.3051 5.38983Z" stroke="black" stroke-width="2" stroke-miterlimit="10" stroke-linecap="round" stroke-linejoin="round"/>
<path d="M12 5.38983C12.9361 5.38983 13.6949 4.63099 13.6949 3.69492C13.6949 2.75884 12.9361 2 12 2C11.0639 2 10.3051 2.75884 10.3051 3.69492C10.3051 4.63099 11.0639 5.38983 12 5.38983Z" stroke="black" stroke-width="2" stroke-miterlimit="10" stroke-linecap="round" stroke-linejoin="round"/>
<path d="M3.69492 5.38983C4.63099 5.38983 5.38983 4.63099 5.38983 3.69492C5.38983 2.75884 4.63099 2 3.69492 2C2.75884 2 2 2.75884 2 3.69492C2 4.63099 2.75884 5.38983 3.69492 5.38983Z" stroke="black" stroke-width="2" stroke-miterlimit="10" stroke-linecap="round" stroke-linejoin="round"/>
<path d="M3.69492 21.9999C4.63099 21.9999 5.38983 21.2411 5.38983 20.305C5.38983 19.3689 4.63099 18.6101 3.69492 18.6101C2.75884 18.6101 2 19.3689 2 20.305C2 21.2411 2.75884 21.9999 3.69492 21.9999Z" stroke="black" stroke-width="2" stroke-miterlimit="10" stroke-linecap="round" stroke-linejoin="round"/>
<path d="M12 21.9999C12.9361 21.9999 13.6949 21.2411 13.6949 20.305C13.6949 19.3689 12.9361 18.6101 12 18.6101C11.0639 18.6101 10.3051 19.3689 10.3051 20.305C10.3051 21.2411 11.0639 21.9999 12 21.9999Z" stroke="black" stroke-width="2" stroke-miterlimit="10" stroke-linecap="round" stroke-linejoin="round"/>
<path d="M20.3051 5.38989V10.1357C20.3051 11.0717 19.5462 11.8306 18.6102 11.8306H3.69492V18.6102" stroke="black" stroke-width="2" stroke-miterlimit="10" stroke-linecap="round" stroke-linejoin="round"/>
<path d="M3.69492 11.8306V5.38989" stroke="black" stroke-width="2" stroke-miterlimit="10" stroke-linecap="round" stroke-linejoin="round"/>
<path d="M12 5.38989V18.6102" stroke="black" stroke-width="2" stroke-miterlimit="10" stroke-linecap="round" stroke-linejoin="round"/>
<path d="M20.3051 21.9999C21.2412 21.9999 22 21.2411 22 20.305C22 19.3689 21.2412 18.6101 20.3051 18.6101C19.369 18.6101 18.6102 19.3689 18.6102 20.305C18.6102 21.2411 19.369 21.9999 20.3051 21.9999Z" stroke="black" stroke-width="2" stroke-miterlimit="10" stroke-linecap="round" stroke-linejoin="round"/>
<path d="M20.3051 15.2205V18.6103" stroke="black" stroke-width="2" stroke-miterlimit="10" stroke-linecap="round" stroke-linejoin="round"/>
</svg>
