<svg width="16" height="16" viewBox="0 0 16 16" fill="none" xmlns="http://www.w3.org/2000/svg">
<path d="M11.7018 0.882812H4.2777C2.22666 0.882812 0.55809 2.55187 0.55809 4.60351V11.3975C0.55809 13.4491 2.22666 15.1182 4.2777 15.1182H11.7018C13.7528 15.1182 15.4214 13.4491 15.4214 11.3975V4.60351C15.4214 2.55187 13.7528 0.882812 11.7018 0.882812ZM1.87025 4.60351C1.87025 3.27583 2.95041 2.19536 4.2777 2.19536H11.7018C13.0291 2.19536 14.1092 3.27583 14.1092 4.60351V11.3975C14.1092 12.7252 13.0291 13.8056 11.7018 13.8056H4.2777C2.95041 13.8056 1.87025 12.7252 1.87025 11.3975V4.60351Z" fill="white"/>
<path d="M7.98969 11.4603C9.89699 11.4603 11.4496 9.90815 11.4496 7.99946C11.4496 6.09076 9.89783 4.53857 7.98969 4.53857C6.08156 4.53857 4.52983 6.09076 4.52983 7.99946C4.52983 9.90815 6.08156 11.4603 7.98969 11.4603ZM7.98969 5.85196C9.17408 5.85196 10.1374 6.81556 10.1374 8.0003C10.1374 9.18504 9.17408 10.1486 7.98969 10.1486C6.8053 10.1486 5.84199 9.18504 5.84199 8.0003C5.84199 6.81556 6.8053 5.85196 7.98969 5.85196Z" fill="white"/>
<path d="M11.7698 5.09789C12.2834 5.09789 12.7021 4.67999 12.7021 4.1654C12.7021 3.65081 12.2843 3.23291 11.7698 3.23291C11.2554 3.23291 10.8376 3.65081 10.8376 4.1654C10.8376 4.67999 11.2554 5.09789 11.7698 5.09789Z" fill="white"/>
</svg>
