<svg width="25" height="24" viewBox="0 0 25 24" fill="none" xmlns="http://www.w3.org/2000/svg">
<path d="M21.3333 10C21.3333 17 12.3333 23 12.3333 23C12.3333 23 3.33331 17 3.33331 10C3.33331 7.61305 4.28152 5.32387 5.96935 3.63604C7.65718 1.94821 9.94636 1 12.3333 1C14.7203 1 17.0094 1.94821 18.6973 3.63604C20.3851 5.32387 21.3333 7.61305 21.3333 10Z" stroke="white" stroke-width="2" stroke-linecap="round" stroke-linejoin="round"/>
<path d="M12.3333 13C13.9902 13 15.3333 11.6569 15.3333 10C15.3333 8.34315 13.9902 7 12.3333 7C10.6765 7 9.33331 8.34315 9.33331 10C9.33331 11.6569 10.6765 13 12.3333 13Z" stroke="white" stroke-width="2" stroke-linecap="round" stroke-linejoin="round"/>
</svg>
